<svg width="61" height="61" viewBox="0 0 61 61" fill="none" xmlns="http://www.w3.org/2000/svg">
<circle cx="30.2195" cy="30.165" r="29.915" fill="#FFF2E5" stroke="#FF7900" stroke-width="0.5"/>
<g clip-path="url(#clip0_18_107)">
<path d="M41.0542 20.7355C40.9161 21.5153 40.4281 22.0608 39.8742 22.5842C38.296 24.0759 36.74 25.5905 35.1696 27.0894C35.0256 27.2271 34.997 27.34 35.0602 27.5306C36.3894 31.5314 37.7109 35.5348 39.0395 39.5356C39.0981 39.7124 39.0838 39.8221 38.945 39.9584C38.1839 40.7043 37.4352 41.4626 36.682 42.2163C36.6253 42.2731 36.5654 42.3266 36.4898 42.3977C34.3564 38.9287 32.2329 35.4754 30.0969 32.0012C30.0396 32.0462 29.9881 32.0795 29.9444 32.1213C28.2079 33.7879 26.4701 35.4545 24.7407 37.129C24.6658 37.2021 24.6208 37.3593 24.6371 37.4657C24.7903 38.47 24.9616 39.4723 25.1213 40.4759C25.1337 40.5523 25.1193 40.6639 25.0711 40.7135C24.325 41.473 23.5718 42.2248 22.797 43.0013C22.7618 42.9165 22.7332 42.8558 22.7104 42.7925C22.1773 41.2746 21.6437 39.7575 21.1165 38.2383C21.0664 38.0941 20.9934 38.0178 20.8468 37.9669C19.3292 37.4402 17.8142 36.9051 16.2992 36.372C16.2386 36.3505 16.1787 36.327 16.0536 36.2304C16.1598 36.156 16.279 36.0947 16.3696 36.0046C17.0232 35.3579 17.667 34.7028 18.3244 34.0607C18.3948 33.9921 18.5368 33.9497 18.6352 33.9647C19.638 34.1187 20.6383 34.291 21.6411 34.4463C21.7349 34.4607 21.8737 34.4235 21.9369 34.3576C23.6252 32.6074 25.3063 30.8501 26.9881 29.0934C27.0148 29.0654 27.037 29.0327 27.08 28.9786C23.6148 26.8388 20.1619 24.7096 16.6772 22.56C16.9456 22.2971 17.1965 22.055 17.4428 21.809C18.0012 21.2517 18.5649 20.699 19.1109 20.1306C19.2582 19.9772 19.3787 19.9596 19.5735 20.0242C22.6517 21.0513 25.7331 22.07 28.8133 23.0912C29.7222 23.3927 30.6325 23.6903 31.5376 24.0022C31.7246 24.0668 31.8406 24.0387 31.9781 23.8939C33.5315 22.2618 35.0999 20.6448 36.6455 19.0056C37.1179 18.5057 37.6444 18.1357 38.3227 18C38.5345 18 38.7456 18 38.9567 18C39.0102 18.0163 39.0623 18.0365 39.1164 18.0476C39.7549 18.1814 40.2827 18.5038 40.6229 19.0584C40.8164 19.3749 40.9135 19.7508 41.0542 20.0999V20.7349V20.7355Z" fill="#FFA95C"/>
</g>
<defs>
<clipPath id="clip0_18_107">
<rect width="25" height="25" fill="white" transform="translate(16.0545 18)"/>
</clipPath>
</defs>
</svg>
