<svg width="10" height="6" viewBox="0 0 10 6" fill="none" xmlns="http://www.w3.org/2000/svg">
<path d="M9.22429 0.140029L5.36176 4.02397C5.27749 4.10915 5.16302 4.15765 5.04321 4.15893C4.92339 4.16022 4.80791 4.11419 4.72183 4.03084L0.776848 0.23152C0.69024 0.14822 0.574381 0.102266 0.454221 0.103556C0.334062 0.104845 0.219215 0.153275 0.134415 0.238414C0.0926543 0.28001 0.0596421 0.329544 0.0373243 0.384097C0.0150064 0.438651 0.00383423 0.49712 0.00446675 0.556059C0.00509928 0.614997 0.0175237 0.673212 0.0410072 0.727274C0.0644907 0.781336 0.0985583 0.83015 0.141203 0.87084L4.08535 4.67017C4.34513 4.91982 4.69253 5.05753 5.05281 5.05366C5.41308 5.04979 5.75745 4.90466 6.01181 4.6495L9.87351 0.766394C9.9154 0.724784 9.94852 0.675198 9.97092 0.620566C9.99331 0.565935 10.0045 0.507368 10.0039 0.448329C10.0033 0.38929 9.99079 0.330978 9.96723 0.276839C9.94367 0.222701 9.90949 0.173836 9.86672 0.133135C9.78011 0.0498347 9.66425 0.00388123 9.54409 0.00517077C9.42393 0.0064603 9.30909 0.0548896 9.22429 0.140029Z" fill="#505050"/>
</svg>
