<svg width="13" height="9" viewBox="0 0 13 9" fill="none" xmlns="http://www.w3.org/2000/svg">
<path d="M12.8542 4.85439L9.8542 8.85439C9.76032 8.94827 9.63298 9.00102 9.5002 9.00102C9.36743 9.00102 9.24009 8.94827 9.1462 8.85439C9.05232 8.7605 8.99957 8.63316 8.99957 8.50039C8.99957 8.36761 9.05232 8.24027 9.1462 8.14639L11.2932 5.00039L0.500205 5.00039C0.367597 5.00039 0.240419 4.94771 0.146651 4.85394C0.0528829 4.76017 0.000204837 4.633 0.000204843 4.50039C0.000204849 4.36778 0.0528829 4.2406 0.146651 4.14683C0.240419 4.05307 0.367597 4.00039 0.500205 4.00039L11.2932 4.00039L9.1462 0.854388C9.05232 0.760501 8.99957 0.633163 8.99957 0.500387C8.99957 0.367612 9.05232 0.240274 9.1462 0.146387C9.24009 0.0525008 9.36743 -0.000244298 9.50021 -0.000244294C9.63298 -0.000244289 9.76032 0.0525009 9.85421 0.146387L12.8542 4.14639C12.9008 4.19283 12.9377 4.24801 12.9629 4.30875C12.9881 4.3695 13.0011 4.43462 13.0011 4.50039C13.0011 4.56615 12.9881 4.63128 12.9629 4.69202C12.9377 4.75277 12.9008 4.80794 12.8542 4.85439Z" fill="#50ADFF"/>
</svg>
