<svg width="11" height="14" viewBox="0 0 11 14" fill="none" xmlns="http://www.w3.org/2000/svg">
<path d="M1.02689 3.84587C0.836395 2.58887 1.72339 1.45787 3.07839 1.04287C3.31898 0.969234 3.5786 0.990159 3.80428 1.10138C4.02997 1.21259 4.20472 1.40572 4.29289 1.64137L4.72739 2.80137C4.79725 2.98796 4.80978 3.19117 4.76336 3.38494C4.71695 3.5787 4.61371 3.75418 4.46689 3.88887L3.17439 5.07437C3.11053 5.13284 3.06295 5.2069 3.0363 5.28929C3.00966 5.37168 3.00486 5.45957 3.02239 5.54437L3.03389 5.59637L3.06589 5.72687C3.09439 5.83687 3.13739 5.99187 3.19789 6.17687C3.31789 6.54437 3.50939 7.03837 3.79439 7.53187C4.07939 8.02537 4.41139 8.43837 4.66939 8.72587C4.80388 8.87546 4.94432 9.01957 5.09039 9.15787L5.13039 9.19487C5.19504 9.25213 5.27342 9.29166 5.35789 9.30962C5.44236 9.32758 5.53004 9.32336 5.61239 9.29737L7.28539 8.77087C7.47548 8.71112 7.67908 8.70951 7.87008 8.76626C8.06108 8.82301 8.23077 8.93552 8.35739 9.08937L9.14889 10.0504C9.47889 10.4504 9.43989 11.0384 9.06039 11.3919C8.02339 12.3584 6.59739 12.5569 5.60539 11.7589C4.38976 10.7779 3.36473 9.58185 2.58139 8.23037C1.7923 6.87936 1.26493 5.39223 1.02689 3.84587ZM4.06989 5.60987L5.14289 4.62587C5.43653 4.35649 5.64301 4.00553 5.73583 3.618C5.82866 3.23048 5.80361 2.82406 5.66389 2.45087L5.22889 1.29087C5.05143 0.816934 4.6999 0.428518 4.24596 0.204801C3.79202 -0.0189168 3.26985 -0.0610929 2.78589 0.0868695C1.10339 0.60237 -0.247606 2.11087 0.0383944 3.99537C0.295126 5.66632 0.864571 7.27389 1.71689 8.73387C2.56179 10.1913 3.66732 11.481 4.97839 12.5389C6.46589 13.7339 8.45289 13.3264 9.74239 12.1239C10.1116 11.7801 10.3356 11.3084 10.3688 10.805C10.402 10.3017 10.2418 9.80462 9.92089 9.41537L9.12939 8.45437C8.87612 8.14658 8.53664 7.92149 8.15454 7.80799C7.77243 7.69449 7.36513 7.69776 6.98489 7.81737L5.59639 8.25437C5.53423 8.19046 5.47338 8.12528 5.41389 8.05887C5.12844 7.74325 4.87596 7.3993 4.66039 7.03237C4.4503 6.66217 4.27858 6.27147 4.14789 5.86637C4.12014 5.78158 4.09413 5.69623 4.06989 5.61037" fill="rgba(255, 255, 255, 0.612)"/>
</svg>
