<svg width="22" height="22" viewBox="0 0 22 22" fill="none" xmlns="http://www.w3.org/2000/svg">
<rect width="22" height="22" rx="2" fill="white"/>
<path d="M5 11C5 8.17179 5 6.75705 5.87853 5.87853C6.75705 5 8.17116 5 11 5C13.8282 5 15.2429 5 16.1215 5.87853C17 6.75705 17 8.17116 17 11C17 13.8282 17 15.2429 16.1215 16.1215C15.2429 17 13.8288 17 11 17C8.17179 17 6.75705 17 5.87853 16.1215C5 15.2429 5 13.8288 5 11Z" stroke="#030728" stroke-linecap="round" stroke-linejoin="round"/>
<path d="M14.479 7.52637H14.4727M13.8424 11.0001C13.8424 11.7538 13.543 12.4767 13.01 13.0097C12.477 13.5427 11.7541 13.8422 11.0003 13.8422C10.2465 13.8422 9.52363 13.5427 8.99064 13.0097C8.45764 12.4767 8.1582 11.7538 8.1582 11.0001C8.1582 10.2463 8.45764 9.52338 8.99064 8.99038C9.52363 8.45738 10.2465 8.15795 11.0003 8.15795C11.7541 8.15795 12.477 8.45738 13.01 8.99038C13.543 9.52338 13.8424 10.2463 13.8424 11.0001Z" stroke="#030728" stroke-linecap="round" stroke-linejoin="round"/>
</svg>
