<svg width="22" height="22" viewBox="0 0 22 22" fill="none" xmlns="http://www.w3.org/2000/svg">
<rect width="22" height="22" rx="2" fill="white"/>
<path fill-rule="evenodd" clip-rule="evenodd" d="M11.9139 8.4905V9.86931C12.2026 9.42949 12.6006 9.07217 13.0689 8.83233C13.5372 8.59248 14.0597 8.47834 14.5854 8.50106C17.3926 8.50106 17.9995 10.2561 17.9995 12.5392V17.1875H15.3995V13.0665C15.3995 12.0834 15.2012 10.8191 13.6705 10.8191C12.1861 10.8191 11.9326 11.8892 11.9326 12.9934V17.1875H9.34069V8.4905H11.9139ZM7.5995 6.30487C7.59918 6.56244 7.52283 6.81418 7.38003 7.02853C7.23722 7.24288 7.03432 7.41031 6.79675 7.50981C6.55928 7.60852 6.29781 7.63434 6.04562 7.58398C5.79343 7.53363 5.56192 7.40939 5.38056 7.22706C5.19886 7.04462 5.07515 6.81253 5.025 6.55997C4.97485 6.30742 5.0005 6.04567 5.09871 5.80765C5.19693 5.56962 5.36332 5.36596 5.57698 5.22225C5.79064 5.07855 6.04201 5.00122 6.2995 5C6.47063 5 6.64007 5.03379 6.79812 5.09942C6.95616 5.16506 7.09968 5.26125 7.22046 5.38248C7.34125 5.50372 7.4369 5.6476 7.50194 5.80589C7.56699 5.96418 7.60014 6.13375 7.5995 6.30487Z" fill="#030728"/>
<path d="M7.6 8.50098H5V17.1874H7.6V8.50098Z" fill="#030728"/>
</svg>
