<svg width="12" height="14" viewBox="0 0 12 14" fill="none" xmlns="http://www.w3.org/2000/svg">
<path d="M7.5 6C7.5 5.60218 7.34196 5.22064 7.06066 4.93934C6.77936 4.65804 6.39782 4.5 6 4.5C5.60218 4.5 5.22064 4.65804 4.93934 4.93934C4.65804 5.22064 4.5 5.60218 4.5 6C4.5 6.39782 4.65804 6.77936 4.93934 7.06066C5.22064 7.34196 5.60218 7.5 6 7.5C6.39782 7.5 6.77936 7.34196 7.06066 7.06066C7.34196 6.77936 7.5 6.39782 7.5 6ZM12 6C12 8.874 8.903 12.016 7.159 13.558C6.84011 13.8428 6.42754 14.0002 6 14.0002C5.57246 14.0002 5.15989 13.8428 4.841 13.558C3.097 12.016 0 8.874 0 6C-1.17411e-08 5.21207 0.155195 4.43185 0.456723 3.7039C0.758251 2.97595 1.20021 2.31451 1.75736 1.75736C2.31451 1.20021 2.97595 0.758251 3.7039 0.456723C4.43185 0.155195 5.21207 0 6 0C6.78793 0 7.56815 0.155195 8.2961 0.456723C9.02405 0.758251 9.68549 1.20021 10.2426 1.75736C10.7998 2.31451 11.2417 2.97595 11.5433 3.7039C11.8448 4.43185 12 5.21207 12 6ZM11 6C11 4.67392 10.4732 3.40215 9.53553 2.46447C8.59785 1.52678 7.32608 1 6 1C4.67392 1 3.40215 1.52678 2.46447 2.46447C1.52678 3.40215 1 4.67392 1 6C1 7.108 1.615 8.395 2.57 9.683C3.504 10.941 4.657 12.06 5.503 12.809C5.63912 12.9324 5.81628 13.0007 6 13.0007C6.18372 13.0007 6.36088 12.9324 6.497 12.809C7.343 12.06 8.497 10.942 9.43 9.683C10.385 8.395 11 7.108 11 6Z" fill="rgba(255, 255, 255, 0.612)"/>
</svg>
