<svg width="17" height="13" viewBox="0 0 17 13" fill="none" xmlns="http://www.w3.org/2000/svg">
<path d="M2.68421 0H14.3158C15.0277 0 15.7104 0.273928 16.2138 0.761522C16.7172 1.24912 17 1.91044 17 2.6V10.4C17 11.0896 16.7172 11.7509 16.2138 12.2385C15.7104 12.7261 15.0277 13 14.3158 13H2.68421C1.97231 13 1.28957 12.7261 0.786187 12.2385C0.2828 11.7509 0 11.0896 0 10.4V2.6C0 1.91044 0.2828 1.24912 0.786187 0.761522C1.28957 0.273928 1.97231 0 2.68421 0ZM2.68421 0.866667C2.23684 0.866667 1.84316 1.014 1.53895 1.274L8.5 5.63333L15.4611 1.274C15.1568 1.014 14.7632 0.866667 14.3158 0.866667H2.68421ZM8.5 6.682L1.01105 1.976C0.939474 2.16667 0.894737 2.38333 0.894737 2.6V10.4C0.894737 10.8597 1.08327 11.3006 1.41886 11.6257C1.75445 11.9507 2.20961 12.1333 2.68421 12.1333H14.3158C14.7904 12.1333 15.2455 11.9507 15.5811 11.6257C15.9167 11.3006 16.1053 10.8597 16.1053 10.4V2.6C16.1053 2.38333 16.0605 2.16667 15.9889 1.976L8.5 6.682Z" fill="rgba(255, 255, 255, 0.612)"/>
</svg>
