<svg width="61" height="60" viewBox="0 0 61 60" fill="none" xmlns="http://www.w3.org/2000/svg">
<circle cx="30.9661" cy="30" r="29.75" fill="#FFF2E5" stroke="#FF7900" stroke-width="0.5"/>
<g clip-path="url(#clip0_18_87)">
<path d="M45.966 26.7611C45.8371 27.3826 45.7221 28.0081 45.5767 28.6257C44.8317 31.7961 43.6417 34.7811 41.9355 37.5374C41.5683 38.1305 41.5468 38.6183 41.9671 39.1701C42.2824 39.5836 42.5409 40.0423 42.8297 40.4771C43.0578 40.8196 43.1336 41.1769 42.9194 41.5497C42.7134 41.9089 42.386 42.0271 41.9911 41.9955C40.3019 41.8598 38.6121 41.7286 36.9229 41.5936C34.9822 41.4385 33.0415 41.2802 31.1008 41.1239C28.8985 40.9462 26.6968 40.7685 24.4945 40.5921C22.5841 40.439 20.6731 40.2872 18.7627 40.1334C18.0587 40.0765 17.3548 40.0242 16.652 39.9531C16.0504 39.8918 15.5758 39.5713 15.3761 39.0001C15.0557 38.0853 14.8687 37.1349 15.0172 36.1483C15.105 35.5623 15.4425 35.2095 15.9841 35.0447C17.1519 34.69 18.3298 34.367 19.4876 33.9787C21.2911 33.3739 23.0037 32.5443 24.7011 31.6831C26.8307 30.6022 28.9522 29.5025 31.1779 28.6361C33.8055 27.6133 36.509 26.8703 39.2901 26.4684C41.2049 26.1919 43.1381 26.0439 45.0617 25.8294C45.487 25.7822 45.7865 25.9309 45.9654 26.3289V26.7624L45.966 26.7611ZM37.7413 34.9769C37.127 34.8024 36.7807 34.3392 36.7017 33.6201C36.6663 33.3003 36.4793 33.1122 36.2233 33.1407C35.9743 33.1685 35.841 33.3616 35.8505 33.6802C35.9017 35.3374 37.6522 36.4532 39.1208 35.7535C39.9929 35.3381 40.451 34.6177 40.5111 33.6375C40.5281 33.3597 40.3594 33.1594 40.1212 33.14C39.8835 33.1206 39.7034 33.2899 39.663 33.5703C39.6485 33.6724 39.6396 33.7758 39.6175 33.8759C39.4974 34.4303 39.1694 34.7902 38.6443 34.9969C38.6266 34.9342 38.6121 34.9058 38.6121 34.8774C38.6102 33.9696 38.6039 33.0618 38.6159 32.1547C38.6171 32.0546 38.7012 31.9331 38.7808 31.8608C39.227 31.4582 39.2737 30.7979 38.8737 30.3799C38.4907 29.98 37.8417 29.9864 37.4638 30.3935C37.0625 30.8263 37.1175 31.4666 37.5795 31.8692C37.6534 31.9331 37.7318 32.0449 37.733 32.1353C37.7444 33.0735 37.74 34.0116 37.74 34.9775L37.7413 34.9769Z" fill="#FFA95C"/>
<path d="M24.5962 25.2085V23.1817H28.4138V25.1924C28.5465 25.1988 28.6527 25.2079 28.7588 25.2079C29.586 25.2092 30.4139 25.2066 31.2411 25.2092C31.8813 25.2111 32.2156 25.5477 32.2187 26.1964C32.2206 26.5569 32.335 27.004 32.1694 27.2534C32.0064 27.4996 31.5583 27.5558 31.2291 27.6773C28.6742 28.6231 26.2747 29.9173 23.8391 31.1313C21.9635 32.0669 20.0595 32.9346 18.0499 33.5335C17.9829 33.5535 17.9153 33.569 17.7933 33.6013C17.7933 33.4812 17.7933 33.3855 17.7933 33.2899C17.7933 31.5875 17.8028 29.8856 17.7883 28.1832C17.7832 27.5661 18.0183 27.1203 18.5188 26.7869C19.1267 26.3818 19.722 25.9554 20.3211 25.5367C20.6384 25.3151 20.984 25.2046 21.3714 25.2066C22.4299 25.2124 23.4884 25.2085 24.595 25.2085H24.5962Z" fill="#FFA95C"/>
<path d="M25.7577 17.5503C26.3897 17.7054 26.6911 18.0691 26.6494 18.5976C26.6146 19.037 26.2608 19.402 25.8241 19.4486C25.304 19.5041 24.9615 19.1856 24.7788 18.4574C24.3226 18.5505 23.8524 18.5401 23.5029 18.2022C23.2318 17.9399 22.9942 17.9367 22.653 18C21.6545 18.1867 20.7117 17.5044 20.4557 16.4655C20.2168 15.4957 20.7824 14.4426 21.7177 14.1157C22.7067 13.77 23.7545 14.2184 24.1646 15.185C24.2518 15.3904 24.3466 15.4776 24.5722 15.499C25.3438 15.5733 25.9309 16.357 25.8298 17.1433C25.8127 17.2744 25.7836 17.4043 25.7577 17.5497V17.5503Z" fill="#FFA95C"/>
<path d="M28.4182 22.1796H24.6234C24.6234 21.7603 24.5848 21.3474 24.6335 20.9456C24.6904 20.4784 25.0638 20.169 25.5454 20.1541C26.1906 20.1347 26.8371 20.1321 27.4817 20.1541C28.0333 20.1735 28.3986 20.5702 28.4169 21.1284C28.4277 21.467 28.4188 21.8062 28.4188 22.1796H28.4182Z" fill="#FFA95C"/>
</g>
<defs>
<clipPath id="clip0_18_87">
<rect width="31" height="28" fill="white" transform="translate(14.9661 14)"/>
</clipPath>
</defs>
</svg>
