<svg width="61" height="60" viewBox="0 0 61 60" fill="none" xmlns="http://www.w3.org/2000/svg">
<circle cx="30.8117" cy="29.9863" r="29.7363" fill="#FFF2E5" stroke="#FF7900" stroke-width="0.5"/>
<g clip-path="url(#clip0_18_98)">
<path d="M35.241 36.1657C30.9325 36.1657 26.624 36.163 22.3155 36.171C22.0382 36.171 21.8125 36.1098 21.6256 35.8993C21.1553 35.3702 20.6652 34.8579 20.219 34.3084C19.9244 33.9443 19.8228 33.496 19.8254 33.0077C19.8383 30.6043 19.8297 28.201 19.8357 25.7968C19.8357 25.6139 19.8693 25.4212 19.9305 25.249C20.6075 23.326 21.2931 21.4065 21.977 19.487C22.2053 18.846 22.4017 18.7066 23.0744 18.7066C23.934 18.7066 24.7936 18.6986 25.6533 18.7119C25.8789 18.7155 25.9909 18.6445 26.0228 18.4154C26.0633 18.1118 26.239 17.9999 26.5387 18.0026C27.7524 18.0141 28.9669 18.0185 30.1805 17.9999C30.5087 17.9946 30.7499 18.0816 30.8937 18.3852C31.0186 18.6507 31.2107 18.7199 31.4907 18.7128C32.4786 18.6888 33.4666 18.6924 34.4546 18.6853C34.9266 18.6817 35.1729 18.8753 35.3581 19.4195C36.0687 21.5148 37.0515 23.4591 38.3841 25.2073C40.944 28.5659 44.274 30.6345 48.3232 31.4877C48.8228 31.5934 48.8245 31.5863 48.8245 32.1199C48.8245 33.2501 48.8254 34.3794 48.8245 35.5096C48.8236 36.0849 48.7453 36.1657 48.1983 36.1657C43.8795 36.1657 39.5598 36.1657 35.241 36.1657ZM27.7817 24.7021C27.8911 24.7083 27.9539 24.7136 28.016 24.7136C30.2081 24.7136 32.4002 24.7136 34.5915 24.7127C34.6871 24.7127 34.8017 24.7234 34.874 24.6755C34.9903 24.5964 35.1617 24.4757 35.1652 24.3683C35.1772 23.9297 35.2074 23.4689 35.0963 23.0543C34.8258 22.043 34.4727 21.0549 34.1695 20.0525C34.0954 19.8066 33.9636 19.7152 33.7284 19.7152C32.1169 19.7187 30.5053 19.7205 28.8928 19.7152C28.6913 19.7152 28.6129 19.78 28.5827 19.9895C28.5 20.5577 28.3906 21.1224 28.2942 21.6888C28.1245 22.6796 27.9565 23.6704 27.7808 24.703L27.7817 24.7021ZM27.7998 19.7427C27.7007 19.732 27.6387 19.7187 27.5767 19.7187C26.0616 19.7178 24.5464 19.7196 23.0322 19.7161C22.7626 19.7161 22.5981 19.8244 22.4999 20.0952C22.0365 21.3683 21.5593 22.6361 21.089 23.9066C21.0511 24.0087 21.0132 24.117 21.0046 24.2244C20.9813 24.5201 21.1501 24.7127 21.4318 24.7127C23.1941 24.7145 24.9556 24.711 26.7179 24.7172C26.9091 24.7172 26.9703 24.6497 27.0013 24.4579C27.1581 23.4867 27.3338 22.5189 27.5 21.5503C27.6017 20.9546 27.6981 20.358 27.8006 19.7418L27.7998 19.7427ZM38.9422 31.6751C38.9681 31.5446 38.9792 31.5135 38.9792 31.4815C38.981 30.1533 38.9861 28.826 38.9741 27.4978C38.9732 27.3753 38.8862 27.2351 38.8027 27.1356C38.2953 26.5363 37.7742 25.9486 37.2652 25.3511C37.1291 25.1913 37.0171 25.0084 36.844 24.7669C36.844 26.6162 36.8422 28.3724 36.8491 30.1294C36.8491 30.203 36.9008 30.3052 36.9594 30.3451C37.6002 30.7828 38.248 31.2107 38.9422 31.6742V31.6751ZM41.3704 32.7555C41.3704 32.5513 41.3704 32.4324 41.3704 32.3125C41.3704 31.4274 41.3531 30.5413 41.379 29.657C41.3893 29.3143 41.2782 29.1181 41.0008 28.9406C40.6106 28.6902 40.2523 28.3866 39.8819 28.1033C39.7751 28.0217 39.6735 27.9338 39.5486 27.8326C39.5236 27.9133 39.5064 27.9426 39.5064 27.9711C39.5047 29.2211 39.5021 30.4712 39.5064 31.7221C39.5064 31.7994 39.5409 31.9228 39.5934 31.9476C40.1636 32.2175 40.7399 32.4714 41.3704 32.7547V32.7555ZM43.6822 33.4916C43.6822 32.7875 43.6254 32.1625 43.6969 31.5525C43.7882 30.7739 43.5711 30.2847 42.8114 30.0548C42.5056 29.9624 42.2343 29.7485 41.8966 29.562C41.8966 30.6789 41.8941 31.7274 41.9027 32.776C41.9027 32.8408 41.9759 32.9429 42.0362 32.9624C42.5625 33.1409 43.0939 33.3042 43.6822 33.4916ZM33.0609 31.4513C33.6888 31.4487 34.1772 30.9337 34.1677 30.2838C34.1583 29.6526 33.6647 29.151 33.054 29.1536C32.4356 29.1563 31.9343 29.6837 31.9437 30.3247C31.9523 30.9533 32.4493 31.454 33.0609 31.4513ZM23.5068 30.3069C23.5076 29.6837 23.0132 29.1643 22.4094 29.1545C21.7858 29.1448 21.2828 29.657 21.2819 30.3034C21.2811 30.9515 21.7781 31.4602 22.406 31.4522C23.0158 31.4451 23.5059 30.9355 23.5068 30.3078V30.3069ZM44.1129 30.7135C44.1129 31.6644 44.1112 32.5478 44.1172 33.4312C44.1172 33.4924 44.1715 33.5945 44.218 33.6061C44.6504 33.7153 45.0862 33.8085 45.5608 33.9142C45.5608 33.0414 45.5634 32.2246 45.5565 31.4078C45.5565 31.3457 45.5066 31.2471 45.4575 31.2267C45.0311 31.0545 44.5996 30.8964 44.1138 30.7127L44.1129 30.7135ZM47.2388 34.1805C47.2388 33.3877 47.2413 32.6392 47.2336 31.8908C47.2336 31.8322 47.175 31.7372 47.1251 31.7221C46.7383 31.6049 46.3473 31.5037 45.9028 31.3821C45.9028 32.2282 45.8994 33.0299 45.9097 33.8316C45.9097 33.8911 46.0001 33.9887 46.0613 34.0003C46.4377 34.0695 46.8176 34.1184 47.2388 34.1805ZM47.4946 34.2116C47.8124 34.2409 48.1147 34.2684 48.455 34.3004C48.455 33.5564 48.4593 32.8621 48.4481 32.1687C48.4472 32.1012 48.3542 31.9947 48.2862 31.976C48.0321 31.9077 47.7702 31.8686 47.4946 31.8145V34.2116Z" fill="#FFA95C"/>
<path d="M19.8426 40.9956V39.6115H21.9624V38.2114H24.7618V39.5786H32.4554V38.2114H48.8056V38.9394C48.6161 38.9394 48.4274 38.9367 48.2396 38.9394C45.9407 38.9767 43.6452 39.0672 41.3721 39.4596C40.1955 39.663 39.0352 39.932 37.9499 40.4682C37.8147 40.5348 37.6622 40.5943 37.5623 40.7008C37.2858 40.9947 36.9508 41.0009 36.589 41C31.153 40.9938 25.717 40.9956 20.2819 40.9956H19.8426Z" fill="#FFA95C"/>
</g>
<defs>
<clipPath id="clip0_18_98">
<rect width="29" height="23" fill="white" transform="translate(19.8254 18)"/>
</clipPath>
</defs>
</svg>
