<svg width="61" height="60" viewBox="0 0 61 60" fill="none" xmlns="http://www.w3.org/2000/svg">
<circle cx="30.6888" cy="30" r="29.75" fill="#FFF2E5" stroke="#FF7900" stroke-width="0.5"/>
<g clip-path="url(#clip0_18_76)">
<path d="M16.6887 21.477C16.824 21.1192 17.0817 21 17.4452 21C22.8338 21.0061 28.2219 21.0043 33.6106 21.0043C34.1803 21.0043 34.3706 21.2024 34.3706 21.798C34.3712 26.6711 34.3712 31.5448 34.3706 36.4178C34.3706 36.9975 34.1803 37.1981 33.6277 37.1987C31.3157 37.2005 29.0038 37.1999 26.6918 37.1987C26.1617 37.1987 26.0039 37.0636 25.9093 36.5291C25.5524 34.5118 23.7292 33.4459 21.8658 33.8679C20.4515 34.1883 19.61 35.1251 19.3476 36.6074C19.2749 37.0177 19.0798 37.1901 18.6667 37.1969C18.2708 37.2036 17.8736 37.1834 17.4777 37.203C17.1225 37.2207 16.8548 37.1058 16.6875 36.7731V21.477H16.6887Z" fill="#FF7900" fill-opacity="0.6"/>
<path d="M35.5415 30.7369C35.5415 28.8615 35.5415 26.9866 35.5415 25.1111C35.5415 24.5057 35.7395 24.2978 36.3175 24.2972C37.6011 24.296 38.8847 24.3015 40.1678 24.2935C40.4952 24.2917 40.7387 24.4085 40.9497 24.6708C42.4402 26.5255 43.9371 28.3741 45.4365 30.2202C45.6097 30.4336 45.69 30.6605 45.6888 30.9412C45.6823 32.7677 45.6859 34.5937 45.6853 36.4202C45.6853 36.9926 45.4885 37.1944 44.9353 37.1987C44.8313 37.1993 44.7279 37.1999 44.6239 37.1987C44.1552 37.192 43.9726 37.0391 43.8887 36.5688C43.6481 35.2254 42.9076 34.3155 41.6411 33.9424C40.2724 33.5388 39.039 33.8305 38.0538 34.9422C37.6797 35.3648 37.4522 35.8815 37.3535 36.4539C37.2453 37.0825 37.1065 37.1981 36.4865 37.1993C36.4014 37.1993 36.3169 37.2005 36.2318 37.1993C35.7519 37.1889 35.5445 36.9767 35.5433 36.4796C35.5403 35.0829 35.5421 33.6862 35.5421 32.2895C35.5421 31.7722 35.5421 31.2543 35.5421 30.7369H35.5415ZM39.7677 29.6974C40.5508 29.6974 41.3338 29.6931 42.1163 29.6998C42.4023 29.7023 42.6464 29.6356 42.7705 29.3446C42.8869 29.0706 42.793 28.8376 42.6157 28.6193C41.8639 27.6923 41.114 26.7634 40.3699 25.8296C40.1867 25.6003 39.9686 25.4994 39.682 25.5031C38.9273 25.5123 38.1726 25.5031 37.4179 25.5074C36.9108 25.5098 36.6957 25.73 36.6933 26.2552C36.6886 27.1535 36.6886 28.0512 36.6933 28.9495C36.6963 29.4748 36.9108 29.6943 37.4185 29.6968C38.2016 29.7004 38.9846 29.698 39.7671 29.698L39.7677 29.6974Z" fill="#FF7900" fill-opacity="0.6"/>
<path d="M40.6098 40C39.2671 40 38.1596 38.8583 38.1513 37.4672C38.143 36.0736 39.2683 34.9019 40.6128 34.9044C41.9567 34.9062 43.092 36.0907 43.0743 37.4714C43.0565 38.8657 41.9502 40.0006 40.6092 40.0006L40.6098 40ZM41.3291 37.4586C41.3308 37.0556 41.0034 36.7132 40.6151 36.7114C40.2233 36.7095 39.8965 37.0452 39.8941 37.4507C39.8918 37.8567 40.215 38.1949 40.6069 38.1961C40.9975 38.1979 41.3267 37.861 41.3285 37.458L41.3291 37.4586Z" fill="#FF7900" fill-opacity="0.6"/>
<path d="M25.0898 37.4519C25.0927 38.843 23.9964 39.9878 22.6496 40C21.2992 40.0122 20.1763 38.8595 20.1721 37.458C20.168 36.0656 21.3051 34.8915 22.6443 34.905C23.9905 34.9184 25.0868 36.0601 25.0904 37.4519H25.0898ZM22.633 36.712C22.2495 36.712 21.9073 37.0611 21.9067 37.4537C21.9061 37.8487 22.2447 38.1955 22.6318 38.1961C23.0195 38.1961 23.3588 37.8506 23.3588 37.4555C23.3588 37.0623 23.0172 36.7126 22.633 36.712Z" fill="#FF7900" fill-opacity="0.6"/>
</g>
<defs>
<clipPath id="clip0_18_76">
<rect width="29" height="19" fill="white" transform="translate(16.6888 21)"/>
</clipPath>
</defs>
</svg>
